<?xml version="1.0" encoding="utf-8" standalone="no"?>
<!DOCTYPE svg PUBLIC "-//W3C//DTD SVG 1.1//EN"
  "http://www.w3.org/Graphics/SVG/1.1/DTD/svg11.dtd">
<svg xmlns:xlink="http://www.w3.org/1999/xlink" width="392.533819pt" height="369.002772pt" viewBox="0 0 392.533819 369.002772" xmlns="http://www.w3.org/2000/svg" version="1.1">
 <metadata>
  <rdf:RDF xmlns:dc="http://purl.org/dc/elements/1.1/" xmlns:cc="http://creativecommons.org/ns#" xmlns:rdf="http://www.w3.org/1999/02/22-rdf-syntax-ns#">
   <cc:Work>
    <dc:type rdf:resource="http://purl.org/dc/dcmitype/StillImage"/>
    <dc:date>2025-09-18T10:25:23.573383</dc:date>
    <dc:format>image/svg+xml</dc:format>
    <dc:creator>
     <cc:Agent>
      <dc:title>Matplotlib v3.10.5, https://matplotlib.org/</dc:title>
     </cc:Agent>
    </dc:creator>
   </cc:Work>
  </rdf:RDF>
 </metadata>
 <defs>
  <style type="text/css">*{stroke-linejoin: round; stroke-linecap: butt}</style>
 </defs>
 <g id="figure_1">
  <g id="patch_1">
   <path d="M 0 369.002772 
L 392.533819 369.002772 
L 392.533819 0 
L 0 0 
z
" style="fill: #ffffff"/>
  </g>
  <g id="axes_1">
   <g id="patch_2">
    <path d="M 340.761944 184.501386 
C 340.761944 162.660444 336.459755 141.031877 328.101588 120.853478 
C 319.743422 100.675078 307.491823 82.339265 292.047944 66.895386 
C 276.604066 51.451508 258.268252 39.199909 238.089853 30.841742 
C 217.911453 22.483575 196.282887 18.181386 174.441944 18.181386 
C 152.601002 18.181386 130.972436 22.483575 110.794036 30.841742 
C 90.615636 39.199909 72.279823 51.451508 56.835945 66.895386 
C 41.392066 82.339265 29.140467 100.675078 20.782301 120.853478 
C 12.424134 141.031877 8.121944 162.660444 8.121944 184.501386 
C 8.121944 206.342328 12.424134 227.970895 20.782301 248.149294 
C 29.140467 268.327694 41.392066 286.663507 56.835945 302.107386 
C 72.279823 317.551264 90.615636 329.802863 110.794036 338.16103 
C 130.972436 346.519197 152.601002 350.821386 174.441944 350.821386 
C 196.282887 350.821386 217.911453 346.519197 238.089853 338.16103 
C 258.268252 329.802863 276.604066 317.551264 292.047944 302.107386 
C 307.491823 286.663507 319.743422 268.327694 328.101588 248.149294 
C 336.459755 227.970895 340.761944 206.342328 340.761944 184.501386 
M 174.441944 184.501386 
C 174.441944 184.501386 174.441944 184.501386 174.441944 184.501386 
C 174.441944 184.501386 174.441944 184.501386 174.441944 184.501386 
C 174.441944 184.501386 174.441944 184.501386 174.441944 184.501386 
C 174.441944 184.501386 174.441944 184.501386 174.441944 184.501386 
C 174.441944 184.501386 174.441944 184.501386 174.441944 184.501386 
C 174.441944 184.501386 174.441944 184.501386 174.441944 184.501386 
C 174.441944 184.501386 174.441944 184.501386 174.441944 184.501386 
C 174.441944 184.501386 174.441944 184.501386 174.441944 184.501386 
C 174.441944 184.501386 174.441944 184.501386 174.441944 184.501386 
C 174.441944 184.501386 174.441944 184.501386 174.441944 184.501386 
C 174.441944 184.501386 174.441944 184.501386 174.441944 184.501386 
C 174.441944 184.501386 174.441944 184.501386 174.441944 184.501386 
C 174.441944 184.501386 174.441944 184.501386 174.441944 184.501386 
C 174.441944 184.501386 174.441944 184.501386 174.441944 184.501386 
C 174.441944 184.501386 174.441944 184.501386 174.441944 184.501386 
C 174.441944 184.501386 174.441944 184.501386 174.441944 184.501386 
z
" style="fill: #ffffff"/>
   </g>
   <g id="patch_3">
    <path d="M 324.129944 184.501386 
L 215.55851 57.95761 
L 66.797379 106.293031 
L 66.797379 262.709741 
L 210.418939 295.22719 
z
" clip-path="url(#pa1da159ee8)" style="fill: #0000ff; opacity: 0.25"/>
   </g>
   <g id="matplotlib.axis_1">
    <g id="xtick_1">
     <g id="line2d_1">
      <path d="M 174.441944 184.501386 
L 340.761944 184.501386 
" clip-path="url(#pa1da159ee8)" style="fill: none; stroke: #b0b0b0; stroke-width: 0.8; stroke-linecap: square"/>
     </g>
     <g id="text_1">
      <!-- Frontend -->
      <g transform="translate(324.190069 187.812636) scale(0.12 -0.12)">
       <defs>
        <path id="DejaVuSans-Bold-46" d="M 588 4666 
L 3834 4666 
L 3834 3756 
L 1791 3756 
L 1791 2888 
L 3713 2888 
L 3713 1978 
L 1791 1978 
L 1791 0 
L 588 0 
L 588 4666 
z
" transform="scale(0.015625)"/>
        <path id="DejaVuSans-Bold-72" d="M 3138 2547 
Q 2991 2616 2845 2648 
Q 2700 2681 2553 2681 
Q 2122 2681 1889 2404 
Q 1656 2128 1656 1613 
L 1656 0 
L 538 0 
L 538 3500 
L 1656 3500 
L 1656 2925 
Q 1872 3269 2151 3426 
Q 2431 3584 2822 3584 
Q 2878 3584 2943 3579 
Q 3009 3575 3134 3559 
L 3138 2547 
z
" transform="scale(0.015625)"/>
        <path id="DejaVuSans-Bold-6f" d="M 2203 2784 
Q 1831 2784 1636 2517 
Q 1441 2250 1441 1747 
Q 1441 1244 1636 976 
Q 1831 709 2203 709 
Q 2569 709 2762 976 
Q 2956 1244 2956 1747 
Q 2956 2250 2762 2517 
Q 2569 2784 2203 2784 
z
M 2203 3584 
Q 3106 3584 3614 3096 
Q 4122 2609 4122 1747 
Q 4122 884 3614 396 
Q 3106 -91 2203 -91 
Q 1297 -91 786 396 
Q 275 884 275 1747 
Q 275 2609 786 3096 
Q 1297 3584 2203 3584 
z
" transform="scale(0.015625)"/>
        <path id="DejaVuSans-Bold-6e" d="M 4056 2131 
L 4056 0 
L 2931 0 
L 2931 347 
L 2931 1631 
Q 2931 2084 2911 2256 
Q 2891 2428 2841 2509 
Q 2775 2619 2662 2680 
Q 2550 2741 2406 2741 
Q 2056 2741 1856 2470 
Q 1656 2200 1656 1722 
L 1656 0 
L 538 0 
L 538 3500 
L 1656 3500 
L 1656 2988 
Q 1909 3294 2193 3439 
Q 2478 3584 2822 3584 
Q 3428 3584 3742 3212 
Q 4056 2841 4056 2131 
z
" transform="scale(0.015625)"/>
        <path id="DejaVuSans-Bold-74" d="M 1759 4494 
L 1759 3500 
L 2913 3500 
L 2913 2700 
L 1759 2700 
L 1759 1216 
Q 1759 972 1856 886 
Q 1953 800 2241 800 
L 2816 800 
L 2816 0 
L 1856 0 
Q 1194 0 917 276 
Q 641 553 641 1216 
L 641 2700 
L 84 2700 
L 84 3500 
L 641 3500 
L 641 4494 
L 1759 4494 
z
" transform="scale(0.015625)"/>
        <path id="DejaVuSans-Bold-65" d="M 4031 1759 
L 4031 1441 
L 1416 1441 
Q 1456 1047 1700 850 
Q 1944 653 2381 653 
Q 2734 653 3104 758 
Q 3475 863 3866 1075 
L 3866 213 
Q 3469 63 3072 -14 
Q 2675 -91 2278 -91 
Q 1328 -91 801 392 
Q 275 875 275 1747 
Q 275 2603 792 3093 
Q 1309 3584 2216 3584 
Q 3041 3584 3536 3087 
Q 4031 2591 4031 1759 
z
M 2881 2131 
Q 2881 2450 2695 2645 
Q 2509 2841 2209 2841 
Q 1884 2841 1681 2658 
Q 1478 2475 1428 2131 
L 2881 2131 
z
" transform="scale(0.015625)"/>
        <path id="DejaVuSans-Bold-64" d="M 2919 2988 
L 2919 4863 
L 4044 4863 
L 4044 0 
L 2919 0 
L 2919 506 
Q 2688 197 2409 53 
Q 2131 -91 1766 -91 
Q 1119 -91 703 423 
Q 288 938 288 1747 
Q 288 2556 703 3070 
Q 1119 3584 1766 3584 
Q 2128 3584 2408 3439 
Q 2688 3294 2919 2988 
z
M 2181 722 
Q 2541 722 2730 984 
Q 2919 1247 2919 1747 
Q 2919 2247 2730 2509 
Q 2541 2772 2181 2772 
Q 1825 2772 1636 2509 
Q 1447 2247 1447 1747 
Q 1447 1247 1636 984 
Q 1825 722 2181 722 
z
" transform="scale(0.015625)"/>
       </defs>
       <use xlink:href="#DejaVuSans-Bold-46"/>
       <use xlink:href="#DejaVuSans-Bold-72" transform="translate(61.935547 0)"/>
       <use xlink:href="#DejaVuSans-Bold-6f" transform="translate(111.251953 0)"/>
       <use xlink:href="#DejaVuSans-Bold-6e" transform="translate(179.953125 0)"/>
       <use xlink:href="#DejaVuSans-Bold-74" transform="translate(251.144531 0)"/>
       <use xlink:href="#DejaVuSans-Bold-65" transform="translate(298.947266 0)"/>
       <use xlink:href="#DejaVuSans-Bold-6e" transform="translate(366.769531 0)"/>
       <use xlink:href="#DejaVuSans-Bold-64" transform="translate(437.960938 0)"/>
      </g>
     </g>
    </g>
    <g id="xtick_2">
     <g id="line2d_2">
      <path d="M 174.441944 184.501386 
L 225.837651 26.321666 
" clip-path="url(#pa1da159ee8)" style="fill: none; stroke: #b0b0b0; stroke-width: 0.8; stroke-linecap: square"/>
     </g>
     <g id="text_2">
      <!-- ML e DL -->
      <g transform="translate(203.318576 16.318125) scale(0.12 -0.12)">
       <defs>
        <path id="DejaVuSans-Bold-4d" d="M 588 4666 
L 2119 4666 
L 3181 2169 
L 4250 4666 
L 5778 4666 
L 5778 0 
L 4641 0 
L 4641 3413 
L 3566 897 
L 2803 897 
L 1728 3413 
L 1728 0 
L 588 0 
L 588 4666 
z
" transform="scale(0.015625)"/>
        <path id="DejaVuSans-Bold-4c" d="M 588 4666 
L 1791 4666 
L 1791 909 
L 3903 909 
L 3903 0 
L 588 0 
L 588 4666 
z
" transform="scale(0.015625)"/>
        <path id="DejaVuSans-Bold-20" transform="scale(0.015625)"/>
        <path id="DejaVuSans-Bold-44" d="M 1791 3756 
L 1791 909 
L 2222 909 
Q 2959 909 3348 1275 
Q 3738 1641 3738 2338 
Q 3738 3031 3350 3393 
Q 2963 3756 2222 3756 
L 1791 3756 
z
M 588 4666 
L 1856 4666 
Q 2919 4666 3439 4514 
Q 3959 4363 4331 4000 
Q 4659 3684 4818 3271 
Q 4978 2859 4978 2338 
Q 4978 1809 4818 1395 
Q 4659 981 4331 666 
Q 3956 303 3431 151 
Q 2906 0 1856 0 
L 588 0 
L 588 4666 
z
" transform="scale(0.015625)"/>
       </defs>
       <use xlink:href="#DejaVuSans-Bold-4d"/>
       <use xlink:href="#DejaVuSans-Bold-4c" transform="translate(99.511719 0)"/>
       <use xlink:href="#DejaVuSans-Bold-20" transform="translate(163.232422 0)"/>
       <use xlink:href="#DejaVuSans-Bold-65" transform="translate(198.046875 0)"/>
       <use xlink:href="#DejaVuSans-Bold-20" transform="translate(265.869141 0)"/>
       <use xlink:href="#DejaVuSans-Bold-44" transform="translate(300.683594 0)"/>
       <use xlink:href="#DejaVuSans-Bold-4c" transform="translate(383.691406 0)"/>
      </g>
     </g>
    </g>
    <g id="xtick_3">
     <g id="line2d_3">
      <path d="M 174.441944 184.501386 
L 39.886238 86.740943 
" clip-path="url(#pa1da159ee8)" style="fill: none; stroke: #b0b0b0; stroke-width: 0.8; stroke-linecap: square"/>
     </g>
     <g id="text_3">
      <!-- Scrum -->
      <g transform="translate(7.2 81.823199) scale(0.12 -0.12)">
       <defs>
        <path id="DejaVuSans-Bold-53" d="M 3834 4519 
L 3834 3531 
Q 3450 3703 3084 3790 
Q 2719 3878 2394 3878 
Q 1963 3878 1756 3759 
Q 1550 3641 1550 3391 
Q 1550 3203 1689 3098 
Q 1828 2994 2194 2919 
L 2706 2816 
Q 3484 2659 3812 2340 
Q 4141 2022 4141 1434 
Q 4141 663 3683 286 
Q 3225 -91 2284 -91 
Q 1841 -91 1394 -6 
Q 947 78 500 244 
L 500 1259 
Q 947 1022 1364 901 
Q 1781 781 2169 781 
Q 2563 781 2772 912 
Q 2981 1044 2981 1288 
Q 2981 1506 2839 1625 
Q 2697 1744 2272 1838 
L 1806 1941 
Q 1106 2091 782 2419 
Q 459 2747 459 3303 
Q 459 4000 909 4375 
Q 1359 4750 2203 4750 
Q 2588 4750 2994 4692 
Q 3400 4634 3834 4519 
z
" transform="scale(0.015625)"/>
        <path id="DejaVuSans-Bold-63" d="M 3366 3391 
L 3366 2478 
Q 3138 2634 2908 2709 
Q 2678 2784 2431 2784 
Q 1963 2784 1702 2511 
Q 1441 2238 1441 1747 
Q 1441 1256 1702 982 
Q 1963 709 2431 709 
Q 2694 709 2930 787 
Q 3166 866 3366 1019 
L 3366 103 
Q 3103 6 2833 -42 
Q 2563 -91 2291 -91 
Q 1344 -91 809 395 
Q 275 881 275 1747 
Q 275 2613 809 3098 
Q 1344 3584 2291 3584 
Q 2566 3584 2833 3536 
Q 3100 3488 3366 3391 
z
" transform="scale(0.015625)"/>
        <path id="DejaVuSans-Bold-75" d="M 500 1363 
L 500 3500 
L 1625 3500 
L 1625 3150 
Q 1625 2866 1622 2436 
Q 1619 2006 1619 1863 
Q 1619 1441 1641 1255 
Q 1663 1069 1716 984 
Q 1784 875 1895 815 
Q 2006 756 2150 756 
Q 2500 756 2700 1025 
Q 2900 1294 2900 1772 
L 2900 3500 
L 4019 3500 
L 4019 0 
L 2900 0 
L 2900 506 
Q 2647 200 2364 54 
Q 2081 -91 1741 -91 
Q 1134 -91 817 281 
Q 500 653 500 1363 
z
" transform="scale(0.015625)"/>
        <path id="DejaVuSans-Bold-6d" d="M 3781 2919 
Q 3994 3244 4286 3414 
Q 4578 3584 4928 3584 
Q 5531 3584 5847 3212 
Q 6163 2841 6163 2131 
L 6163 0 
L 5038 0 
L 5038 1825 
Q 5041 1866 5042 1909 
Q 5044 1953 5044 2034 
Q 5044 2406 4934 2573 
Q 4825 2741 4581 2741 
Q 4263 2741 4089 2478 
Q 3916 2216 3909 1719 
L 3909 0 
L 2784 0 
L 2784 1825 
Q 2784 2406 2684 2573 
Q 2584 2741 2328 2741 
Q 2006 2741 1831 2477 
Q 1656 2213 1656 1722 
L 1656 0 
L 531 0 
L 531 3500 
L 1656 3500 
L 1656 2988 
Q 1863 3284 2130 3434 
Q 2397 3584 2719 3584 
Q 3081 3584 3359 3409 
Q 3638 3234 3781 2919 
z
" transform="scale(0.015625)"/>
       </defs>
       <use xlink:href="#DejaVuSans-Bold-53"/>
       <use xlink:href="#DejaVuSans-Bold-63" transform="translate(72.021484 0)"/>
       <use xlink:href="#DejaVuSans-Bold-72" transform="translate(131.298828 0)"/>
       <use xlink:href="#DejaVuSans-Bold-75" transform="translate(180.615234 0)"/>
       <use xlink:href="#DejaVuSans-Bold-6d" transform="translate(251.806641 0)"/>
      </g>
     </g>
    </g>
    <g id="xtick_4">
     <g id="line2d_4">
      <path d="M 174.441944 184.501386 
L 39.886238 282.261829 
" clip-path="url(#pa1da159ee8)" style="fill: none; stroke: #b0b0b0; stroke-width: 0.8; stroke-linecap: square"/>
     </g>
     <g id="text_4">
      <!-- SQL -->
      <g transform="translate(15.315 293.802073) scale(0.12 -0.12)">
       <defs>
        <path id="DejaVuSans-Bold-51" d="M 2847 -84 
L 2753 -84 
Q 1600 -84 959 553 
Q 319 1191 319 2328 
Q 319 3463 958 4106 
Q 1597 4750 2719 4750 
Q 3853 4750 4486 4112 
Q 5119 3475 5119 2328 
Q 5119 1541 4783 972 
Q 4447 403 3816 116 
L 4756 -934 
L 3609 -934 
L 2847 -84 
z
M 2719 3878 
Q 2169 3878 1866 3472 
Q 1563 3066 1563 2328 
Q 1563 1578 1859 1179 
Q 2156 781 2719 781 
Q 3272 781 3575 1187 
Q 3878 1594 3878 2328 
Q 3878 3066 3575 3472 
Q 3272 3878 2719 3878 
z
" transform="scale(0.015625)"/>
       </defs>
       <use xlink:href="#DejaVuSans-Bold-53"/>
       <use xlink:href="#DejaVuSans-Bold-51" transform="translate(72.021484 0)"/>
       <use xlink:href="#DejaVuSans-Bold-4c" transform="translate(157.03125 0)"/>
      </g>
     </g>
    </g>
    <g id="xtick_5">
     <g id="line2d_5">
      <path d="M 174.441944 184.501386 
L 225.837651 342.681106 
" clip-path="url(#pa1da159ee8)" style="fill: none; stroke: #b0b0b0; stroke-width: 0.8; stroke-linecap: square"/>
     </g>
     <g id="text_5">
      <!-- Matematics -->
      <g transform="translate(190.852639 359.307147) scale(0.12 -0.12)">
       <defs>
        <path id="DejaVuSans-Bold-61" d="M 2106 1575 
Q 1756 1575 1579 1456 
Q 1403 1338 1403 1106 
Q 1403 894 1545 773 
Q 1688 653 1941 653 
Q 2256 653 2472 879 
Q 2688 1106 2688 1447 
L 2688 1575 
L 2106 1575 
z
M 3816 1997 
L 3816 0 
L 2688 0 
L 2688 519 
Q 2463 200 2181 54 
Q 1900 -91 1497 -91 
Q 953 -91 614 226 
Q 275 544 275 1050 
Q 275 1666 698 1953 
Q 1122 2241 2028 2241 
L 2688 2241 
L 2688 2328 
Q 2688 2594 2478 2717 
Q 2269 2841 1825 2841 
Q 1466 2841 1156 2769 
Q 847 2697 581 2553 
L 581 3406 
Q 941 3494 1303 3539 
Q 1666 3584 2028 3584 
Q 2975 3584 3395 3211 
Q 3816 2838 3816 1997 
z
" transform="scale(0.015625)"/>
        <path id="DejaVuSans-Bold-69" d="M 538 3500 
L 1656 3500 
L 1656 0 
L 538 0 
L 538 3500 
z
M 538 4863 
L 1656 4863 
L 1656 3950 
L 538 3950 
L 538 4863 
z
" transform="scale(0.015625)"/>
        <path id="DejaVuSans-Bold-73" d="M 3272 3391 
L 3272 2541 
Q 2913 2691 2578 2766 
Q 2244 2841 1947 2841 
Q 1628 2841 1473 2761 
Q 1319 2681 1319 2516 
Q 1319 2381 1436 2309 
Q 1553 2238 1856 2203 
L 2053 2175 
Q 2913 2066 3209 1816 
Q 3506 1566 3506 1031 
Q 3506 472 3093 190 
Q 2681 -91 1863 -91 
Q 1516 -91 1145 -36 
Q 775 19 384 128 
L 384 978 
Q 719 816 1070 734 
Q 1422 653 1784 653 
Q 2113 653 2278 743 
Q 2444 834 2444 1013 
Q 2444 1163 2330 1236 
Q 2216 1309 1875 1350 
L 1678 1375 
Q 931 1469 631 1722 
Q 331 1975 331 2491 
Q 331 3047 712 3315 
Q 1094 3584 1881 3584 
Q 2191 3584 2531 3537 
Q 2872 3491 3272 3391 
z
" transform="scale(0.015625)"/>
       </defs>
       <use xlink:href="#DejaVuSans-Bold-4d"/>
       <use xlink:href="#DejaVuSans-Bold-61" transform="translate(99.511719 0)"/>
       <use xlink:href="#DejaVuSans-Bold-74" transform="translate(166.992188 0)"/>
       <use xlink:href="#DejaVuSans-Bold-65" transform="translate(214.794922 0)"/>
       <use xlink:href="#DejaVuSans-Bold-6d" transform="translate(282.617188 0)"/>
       <use xlink:href="#DejaVuSans-Bold-61" transform="translate(386.816406 0)"/>
       <use xlink:href="#DejaVuSans-Bold-74" transform="translate(454.296875 0)"/>
       <use xlink:href="#DejaVuSans-Bold-69" transform="translate(502.099609 0)"/>
       <use xlink:href="#DejaVuSans-Bold-63" transform="translate(536.376953 0)"/>
       <use xlink:href="#DejaVuSans-Bold-73" transform="translate(595.654297 0)"/>
      </g>
     </g>
    </g>
   </g>
   <g id="matplotlib.axis_2">
    <g id="ytick_1">
     <g id="line2d_6">
      <path d="M 207.705944 184.501386 
C 207.705944 180.133198 206.845507 175.807484 205.173873 171.771804 
C 203.50224 167.736124 201.05192 164.068962 197.963144 160.980186 
C 194.874369 157.89141 191.207206 155.441091 187.171526 153.769457 
C 183.135846 152.097824 178.810133 151.237386 174.441944 151.237386 
C 170.073756 151.237386 165.748043 152.097824 161.712363 153.769457 
C 157.676683 155.441091 154.00952 157.89141 150.920744 160.980186 
C 147.831969 164.068962 145.381649 167.736124 143.710016 171.771804 
C 142.038382 175.807484 141.177944 180.133198 141.177944 184.501386 
C 141.177944 188.869574 142.038382 193.195288 143.710016 197.230968 
C 145.381649 201.266648 147.831969 204.93381 150.920744 208.022586 
C 154.00952 211.111362 157.676683 213.561681 161.712363 215.233315 
C 165.748043 216.904948 170.073756 217.765386 174.441944 217.765386 
C 178.810133 217.765386 183.135846 216.904948 187.171526 215.233315 
C 191.207206 213.561681 194.874369 211.111362 197.963144 208.022586 
C 201.05192 204.93381 203.50224 201.266648 205.173873 197.230968 
C 206.845507 193.195288 207.705944 188.869574 207.705944 184.501386 
" clip-path="url(#pa1da159ee8)" style="fill: none; stroke: #b0b0b0; stroke-width: 0.8; stroke-linecap: square"/>
     </g>
     <g id="text_6">
      <!-- 2 -->
      <g transform="translate(205.173873 169.692117) scale(0.1 -0.1)">
       <defs>
        <path id="DejaVuSans-32" d="M 1228 531 
L 3431 531 
L 3431 0 
L 469 0 
L 469 531 
Q 828 903 1448 1529 
Q 2069 2156 2228 2338 
Q 2531 2678 2651 2914 
Q 2772 3150 2772 3378 
Q 2772 3750 2511 3984 
Q 2250 4219 1831 4219 
Q 1534 4219 1204 4116 
Q 875 4013 500 3803 
L 500 4441 
Q 881 4594 1212 4672 
Q 1544 4750 1819 4750 
Q 2544 4750 2975 4387 
Q 3406 4025 3406 3419 
Q 3406 3131 3298 2873 
Q 3191 2616 2906 2266 
Q 2828 2175 2409 1742 
Q 1991 1309 1228 531 
z
" transform="scale(0.015625)"/>
       </defs>
       <use xlink:href="#DejaVuSans-32"/>
      </g>
     </g>
    </g>
    <g id="ytick_2">
     <g id="line2d_7">
      <path d="M 240.969944 184.501386 
C 240.969944 175.765009 239.249069 167.113582 235.905802 159.042223 
C 232.562535 150.970863 227.661896 143.636537 221.484344 137.458986 
C 215.306793 131.281435 207.972468 126.380795 199.901108 123.037528 
C 191.829748 119.694262 183.178321 117.973386 174.441944 117.973386 
C 165.705568 117.973386 157.054141 119.694262 148.982781 123.037528 
C 140.911421 126.380795 133.577096 131.281435 127.399544 137.458986 
C 121.221993 143.636537 116.321354 150.970863 112.978087 159.042223 
C 109.63482 167.113582 107.913944 175.765009 107.913944 184.501386 
C 107.913944 193.237763 109.63482 201.88919 112.978087 209.960549 
C 116.321354 218.031909 121.221993 225.366235 127.399544 231.543786 
C 133.577096 237.721337 140.911421 242.621977 148.982781 245.965244 
C 157.054141 249.30851 165.705568 251.029386 174.441944 251.029386 
C 183.178321 251.029386 191.829748 249.30851 199.901108 245.965244 
C 207.972468 242.621977 215.306793 237.721337 221.484344 231.543786 
C 227.661896 225.366235 232.562535 218.031909 235.905802 209.960549 
C 239.249069 201.88919 240.969944 193.237763 240.969944 184.501386 
" clip-path="url(#pa1da159ee8)" style="fill: none; stroke: #b0b0b0; stroke-width: 0.8; stroke-linecap: square"/>
     </g>
     <g id="text_7">
      <!-- 4 -->
      <g transform="translate(235.905802 156.962535) scale(0.1 -0.1)">
       <defs>
        <path id="DejaVuSans-34" d="M 2419 4116 
L 825 1625 
L 2419 1625 
L 2419 4116 
z
M 2253 4666 
L 3047 4666 
L 3047 1625 
L 3713 1625 
L 3713 1100 
L 3047 1100 
L 3047 0 
L 2419 0 
L 2419 1100 
L 313 1100 
L 313 1709 
L 2253 4666 
z
" transform="scale(0.015625)"/>
       </defs>
       <use xlink:href="#DejaVuSans-34"/>
      </g>
     </g>
    </g>
    <g id="ytick_3">
     <g id="line2d_8">
      <path d="M 274.233944 184.501386 
C 274.233944 171.396821 271.652631 158.419681 266.637731 146.312641 
C 261.622831 134.205601 254.271871 123.204113 245.005544 113.937786 
C 235.739217 104.671459 224.737729 97.3205 212.63069 92.3056 
C 200.52365 87.2907 187.54651 84.709386 174.441944 84.709386 
C 161.337379 84.709386 148.360239 87.2907 136.253199 92.3056 
C 124.14616 97.3205 113.144672 104.671459 103.878345 113.937786 
C 94.612017 123.204113 87.261058 134.205601 82.246158 146.312641 
C 77.231258 158.419681 74.649944 171.396821 74.649944 184.501386 
C 74.649944 197.605951 77.231258 210.583091 82.246158 222.690131 
C 87.261058 234.797171 94.612017 245.798659 103.878345 255.064986 
C 113.144672 264.331313 124.14616 271.682272 136.253199 276.697172 
C 148.360239 281.712072 161.337379 284.293386 174.441944 284.293386 
C 187.54651 284.293386 200.52365 281.712072 212.63069 276.697172 
C 224.737729 271.682272 235.739217 264.331313 245.005544 255.064986 
C 254.271871 245.798659 261.622831 234.797171 266.637731 222.690131 
C 271.652631 210.583091 274.233944 197.605951 274.233944 184.501386 
" clip-path="url(#pa1da159ee8)" style="fill: none; stroke: #b0b0b0; stroke-width: 0.8; stroke-linecap: square"/>
     </g>
     <g id="text_8">
      <!-- 6 -->
      <g transform="translate(266.637731 144.232953) scale(0.1 -0.1)">
       <defs>
        <path id="DejaVuSans-36" d="M 2113 2584 
Q 1688 2584 1439 2293 
Q 1191 2003 1191 1497 
Q 1191 994 1439 701 
Q 1688 409 2113 409 
Q 2538 409 2786 701 
Q 3034 994 3034 1497 
Q 3034 2003 2786 2293 
Q 2538 2584 2113 2584 
z
M 3366 4563 
L 3366 3988 
Q 3128 4100 2886 4159 
Q 2644 4219 2406 4219 
Q 1781 4219 1451 3797 
Q 1122 3375 1075 2522 
Q 1259 2794 1537 2939 
Q 1816 3084 2150 3084 
Q 2853 3084 3261 2657 
Q 3669 2231 3669 1497 
Q 3669 778 3244 343 
Q 2819 -91 2113 -91 
Q 1303 -91 875 529 
Q 447 1150 447 2328 
Q 447 3434 972 4092 
Q 1497 4750 2381 4750 
Q 2619 4750 2861 4703 
Q 3103 4656 3366 4563 
z
" transform="scale(0.015625)"/>
       </defs>
       <use xlink:href="#DejaVuSans-36"/>
      </g>
     </g>
    </g>
    <g id="ytick_4">
     <g id="line2d_9">
      <path d="M 307.497944 184.501386 
C 307.497944 167.028632 304.056193 149.725779 297.36966 133.583059 
C 290.683126 117.44034 280.881847 102.771689 268.526744 90.416586 
C 256.171642 78.061483 241.502991 68.260204 225.360271 61.573671 
C 209.217552 54.887138 191.914698 51.445386 174.441944 51.445386 
C 156.969191 51.445386 139.666337 54.887138 123.523618 61.573671 
C 107.380898 68.260204 92.712247 78.061483 80.357145 90.416586 
C 68.002042 102.771689 58.200763 117.44034 51.514229 133.583059 
C 44.827696 149.725779 41.385944 167.028632 41.385944 184.501386 
C 41.385944 201.97414 44.827696 219.276993 51.514229 235.419713 
C 58.200763 251.562432 68.002042 266.231083 80.357145 278.586186 
C 92.712247 290.941289 107.380898 300.742568 123.523618 307.429101 
C 139.666337 314.115635 156.969191 317.557386 174.441944 317.557386 
C 191.914698 317.557386 209.217552 314.115635 225.360271 307.429101 
C 241.502991 300.742568 256.171642 290.941289 268.526744 278.586186 
C 280.881847 266.231083 290.683126 251.562432 297.36966 235.419713 
C 304.056193 219.276993 307.497944 201.97414 307.497944 184.501386 
" clip-path="url(#pa1da159ee8)" style="fill: none; stroke: #b0b0b0; stroke-width: 0.8; stroke-linecap: square"/>
     </g>
     <g id="text_9">
      <!-- 8 -->
      <g transform="translate(297.36966 131.503372) scale(0.1 -0.1)">
       <defs>
        <path id="DejaVuSans-38" d="M 2034 2216 
Q 1584 2216 1326 1975 
Q 1069 1734 1069 1313 
Q 1069 891 1326 650 
Q 1584 409 2034 409 
Q 2484 409 2743 651 
Q 3003 894 3003 1313 
Q 3003 1734 2745 1975 
Q 2488 2216 2034 2216 
z
M 1403 2484 
Q 997 2584 770 2862 
Q 544 3141 544 3541 
Q 544 4100 942 4425 
Q 1341 4750 2034 4750 
Q 2731 4750 3128 4425 
Q 3525 4100 3525 3541 
Q 3525 3141 3298 2862 
Q 3072 2584 2669 2484 
Q 3125 2378 3379 2068 
Q 3634 1759 3634 1313 
Q 3634 634 3220 271 
Q 2806 -91 2034 -91 
Q 1263 -91 848 271 
Q 434 634 434 1313 
Q 434 1759 690 2068 
Q 947 2378 1403 2484 
z
M 1172 3481 
Q 1172 3119 1398 2916 
Q 1625 2713 2034 2713 
Q 2441 2713 2670 2916 
Q 2900 3119 2900 3481 
Q 2900 3844 2670 4047 
Q 2441 4250 2034 4250 
Q 1625 4250 1398 4047 
Q 1172 3844 1172 3481 
z
" transform="scale(0.015625)"/>
       </defs>
       <use xlink:href="#DejaVuSans-38"/>
      </g>
     </g>
    </g>
    <g id="ytick_5">
     <g id="line2d_10">
      <path d="M 340.761944 184.501386 
C 340.761944 162.660444 336.459755 141.031877 328.101588 120.853478 
C 319.743422 100.675078 307.491823 82.339265 292.047944 66.895386 
C 276.604066 51.451508 258.268252 39.199909 238.089853 30.841742 
C 217.911453 22.483575 196.282887 18.181386 174.441944 18.181386 
C 152.601002 18.181386 130.972436 22.483575 110.794036 30.841742 
C 90.615636 39.199909 72.279823 51.451508 56.835945 66.895386 
C 41.392066 82.339265 29.140467 100.675078 20.782301 120.853478 
C 12.424134 141.031877 8.121944 162.660444 8.121944 184.501386 
C 8.121944 206.342328 12.424134 227.970895 20.782301 248.149294 
C 29.140467 268.327694 41.392066 286.663507 56.835945 302.107386 
C 72.279823 317.551264 90.615636 329.802863 110.794036 338.16103 
C 130.972436 346.519197 152.601002 350.821386 174.441944 350.821386 
C 196.282887 350.821386 217.911453 346.519197 238.089853 338.16103 
C 258.268252 329.802863 276.604066 317.551264 292.047944 302.107386 
C 307.491823 286.663507 319.743422 268.327694 328.101588 248.149294 
C 336.459755 227.970895 340.761944 206.342328 340.761944 184.501386 
" clip-path="url(#pa1da159ee8)" style="fill: none; stroke: #b0b0b0; stroke-width: 0.8; stroke-linecap: square"/>
     </g>
     <g id="text_10">
      <!-- 10 -->
      <g transform="translate(328.101588 118.77379) scale(0.1 -0.1)">
       <defs>
        <path id="DejaVuSans-31" d="M 794 531 
L 1825 531 
L 1825 4091 
L 703 3866 
L 703 4441 
L 1819 4666 
L 2450 4666 
L 2450 531 
L 3481 531 
L 3481 0 
L 794 0 
L 794 531 
z
" transform="scale(0.015625)"/>
        <path id="DejaVuSans-30" d="M 2034 4250 
Q 1547 4250 1301 3770 
Q 1056 3291 1056 2328 
Q 1056 1369 1301 889 
Q 1547 409 2034 409 
Q 2525 409 2770 889 
Q 3016 1369 3016 2328 
Q 3016 3291 2770 3770 
Q 2525 4250 2034 4250 
z
M 2034 4750 
Q 2819 4750 3233 4129 
Q 3647 3509 3647 2328 
Q 3647 1150 3233 529 
Q 2819 -91 2034 -91 
Q 1250 -91 836 529 
Q 422 1150 422 2328 
Q 422 3509 836 4129 
Q 1250 4750 2034 4750 
z
" transform="scale(0.015625)"/>
       </defs>
       <use xlink:href="#DejaVuSans-31"/>
       <use xlink:href="#DejaVuSans-30" transform="translate(63.623047 0)"/>
      </g>
     </g>
    </g>
   </g>
   <g id="line2d_11">
    <path d="M 324.129944 184.501386 
L 215.55851 57.95761 
L 66.797379 106.293031 
L 66.797379 262.709741 
L 210.418939 295.22719 
L 324.129944 184.501386 
" clip-path="url(#pa1da159ee8)" style="fill: none; stroke: #1f77b4; stroke-width: 2; stroke-linecap: square"/>
   </g>
   <g id="patch_4">
    <path d="M 340.761944 184.501386 
C 340.761944 162.660444 336.459755 141.031877 328.101588 120.853478 
C 319.743422 100.675078 307.491823 82.339265 292.047944 66.895386 
C 276.604066 51.451508 258.268252 39.199909 238.089853 30.841742 
C 217.911453 22.483575 196.282887 18.181386 174.441944 18.181386 
C 152.601002 18.181386 130.972436 22.483575 110.794036 30.841742 
C 90.615636 39.199909 72.279823 51.451508 56.835945 66.895386 
C 41.392066 82.339265 29.140467 100.675078 20.782301 120.853478 
C 12.424134 141.031877 8.121944 162.660444 8.121944 184.501386 
C 8.121944 206.342328 12.424134 227.970895 20.782301 248.149294 
C 29.140467 268.327694 41.392066 286.663507 56.835945 302.107386 
C 72.279823 317.551264 90.615636 329.802863 110.794036 338.16103 
C 130.972436 346.519197 152.601002 350.821386 174.441944 350.821386 
C 196.282887 350.821386 217.911453 346.519197 238.089853 338.16103 
C 258.268252 329.802863 276.604066 317.551264 292.047944 302.107386 
C 307.491823 286.663507 319.743422 268.327694 328.101588 248.149294 
C 336.459755 227.970895 340.761944 206.342328 340.761944 184.501386 
" style="fill: none; stroke: #000000; stroke-width: 0.8; stroke-linejoin: miter; stroke-linecap: square"/>
   </g>
  </g>
 </g>
 <defs>
  <clipPath id="pa1da159ee8">
   <path d="M 340.761944 184.501386 
C 340.761944 162.660444 336.459755 141.031877 328.101588 120.853478 
C 319.743422 100.675078 307.491823 82.339265 292.047944 66.895386 
C 276.604066 51.451508 258.268252 39.199909 238.089853 30.841742 
C 217.911453 22.483575 196.282887 18.181386 174.441944 18.181386 
C 152.601002 18.181386 130.972436 22.483575 110.794036 30.841742 
C 90.615636 39.199909 72.279823 51.451508 56.835945 66.895386 
C 41.392066 82.339265 29.140467 100.675078 20.782301 120.853478 
C 12.424134 141.031877 8.121944 162.660444 8.121944 184.501386 
C 8.121944 206.342328 12.424134 227.970895 20.782301 248.149294 
C 29.140467 268.327694 41.392066 286.663507 56.835945 302.107386 
C 72.279823 317.551264 90.615636 329.802863 110.794036 338.16103 
C 130.972436 346.519197 152.601002 350.821386 174.441944 350.821386 
C 196.282887 350.821386 217.911453 346.519197 238.089853 338.16103 
C 258.268252 329.802863 276.604066 317.551264 292.047944 302.107386 
C 307.491823 286.663507 319.743422 268.327694 328.101588 248.149294 
C 336.459755 227.970895 340.761944 206.342328 340.761944 184.501386 
M 174.441944 184.501386 
C 174.441944 184.501386 174.441944 184.501386 174.441944 184.501386 
C 174.441944 184.501386 174.441944 184.501386 174.441944 184.501386 
C 174.441944 184.501386 174.441944 184.501386 174.441944 184.501386 
C 174.441944 184.501386 174.441944 184.501386 174.441944 184.501386 
C 174.441944 184.501386 174.441944 184.501386 174.441944 184.501386 
C 174.441944 184.501386 174.441944 184.501386 174.441944 184.501386 
C 174.441944 184.501386 174.441944 184.501386 174.441944 184.501386 
C 174.441944 184.501386 174.441944 184.501386 174.441944 184.501386 
C 174.441944 184.501386 174.441944 184.501386 174.441944 184.501386 
C 174.441944 184.501386 174.441944 184.501386 174.441944 184.501386 
C 174.441944 184.501386 174.441944 184.501386 174.441944 184.501386 
C 174.441944 184.501386 174.441944 184.501386 174.441944 184.501386 
C 174.441944 184.501386 174.441944 184.501386 174.441944 184.501386 
C 174.441944 184.501386 174.441944 184.501386 174.441944 184.501386 
C 174.441944 184.501386 174.441944 184.501386 174.441944 184.501386 
C 174.441944 184.501386 174.441944 184.501386 174.441944 184.501386 
z
"/>
  </clipPath>
 </defs>
</svg>
